<svg width="169" height="42" viewBox="0 0 169 42" fill="none" xmlns="http://www.w3.org/2000/svg">
<path d="M26.7353 19.8019C25.2611 26.3714 19.5532 31.0224 12.9733 31.0224L12.7422 31.0224L14.6192 22.6671C14.9483 21.2004 13.8593 19.8019 12.3885 19.8019L2.52747 19.8019L3.02122 17.6108L3.15078 17.0192L4.81063 9.65C4.9472 9.02962 5.49348 8.58496 6.1203 8.58496L18.0159 8.58496C23.7693 8.58496 28.024 14.0643 26.7353 19.8055" fill="#5323E5"/>
<path d="M26.7353 19.8019C25.2611 26.3714 19.5532 31.0224 12.9733 31.0224L12.7422 31.0224L14.6192 22.6671C14.9483 21.2004 13.8593 19.8019 12.3885 19.8019L2.52747 19.8019L3.02122 17.6108L3.15078 17.0192L4.81063 9.65C4.9472 9.02962 5.49348 8.58496 6.1203 8.58496L18.0159 8.58496C23.7693 8.58496 28.024 14.0643 26.7353 19.8055" fill="#5323E5"/>
<path d="M3.84944e-10 31.0205L9.89957 38.777C10.3408 39.114 10.9781 38.8774 11.1007 38.3251L12.743 31.0205L3.84944e-10 31.0205Z" fill="#76F4DC"/>
<mask id="mask0_1_130" style="mask-type:luminance" maskUnits="userSpaceOnUse" x="2" y="14" width="20" height="19">
<path d="M5.36082 15.4336C2.04112 16.9899 2.65393 20.6189 2.65393 24.1152C2.65393 29.1929 4.5484 32.7179 10.4244 32.7179C16.3004 32.7179 21.0664 28.6013 21.0664 23.5235C21.0664 18.4458 16.3004 14.3291 10.4244 14.3291C8.59297 14.3291 6.86659 14.7307 5.36082 15.4336Z" fill="white"/>
</mask>
<g mask="url(#mask0_1_130)">
<path d="M2.04102 14.3291L2.04102 32.7179L4.17711 32.7179L4.17711 30.9716L13.5444 30.9716L13.5444 30.8927L13.9016 30.8927L13.9016 29.1678L21.0663 29.1678L21.0663 14.3291L2.04102 14.3291Z" fill="url(#paint0_radial_1_130)"/>
</g>
<path d="M2.52829 19.8004L2.03804 21.9914L0.283645 29.8017L0.17509 30.2786L2.61171e-10 31.0173L12.743 31.0173L14.62 22.6656C14.9491 21.1989 13.8601 19.8004 12.3893 19.8004L4.72742 19.8004C3.60334 19.8004 2.76992 18.7318 3.02555 17.6094L2.5318 19.8004L2.52829 19.8004Z" fill="url(#paint1_linear_1_130)"/>
<path d="M44.6996 11.2227C47.1754 11.2227 49.1504 11.9219 50.6177 13.3276C52.0849 14.7297 52.8168 16.6446 52.8168 19.0723C52.8168 21.5 52.0779 23.4616 50.6002 24.8995C49.1224 26.3339 47.1544 27.0547 44.6996 27.0547L39.7761 27.0547L39.7761 34.5996L35.1152 34.5996L35.1152 11.2262L44.6996 11.2262L44.6996 11.2227ZM44.5035 22.5077C45.6766 22.5077 46.5696 22.2065 47.1754 21.6076C47.7847 21.0052 48.0894 20.184 48.0894 19.1369C48.0894 18.0898 47.7847 17.2399 47.1754 16.6482C46.5661 16.0601 45.6766 15.7625 44.5035 15.7625L39.7761 15.7625L39.7761 22.5077L44.5035 22.5077Z" fill="#120C2B"/>
<path d="M66.4947 16.2324L71.159 16.2324L71.159 34.5962L66.4947 34.5962L66.4947 32.0609C65.1255 34.0188 63.2765 34.9978 60.9513 34.9978C58.9728 34.9978 57.4145 34.3451 56.2729 33.0434C55.1313 31.7417 54.5605 29.9774 54.5605 27.7506L54.5605 16.2324L59.2249 16.2324L59.2249 26.7178C59.2249 27.9657 59.4806 28.9016 59.9918 29.522C60.5031 30.146 61.3435 30.458 62.5201 30.458C63.8018 30.458 64.7858 30.0671 65.4721 29.2889C66.155 28.5108 66.4982 27.374 66.4982 25.8823L66.4982 16.2324L66.4947 16.2324Z" fill="#120C2B"/>
<path d="M83.8293 15.8325C84.134 15.8325 84.4807 15.854 84.8729 15.9007L84.8729 20.8098C84.3931 20.7668 84.0149 20.7417 83.7313 20.7417C82.0785 20.7417 80.7478 21.1792 79.7393 22.0613C78.7272 22.9399 78.223 24.3922 78.223 26.4183L78.223 34.5979L73.5586 34.5979L73.5586 16.2342L78.223 16.2342L78.223 19.44C79.3331 17.0374 81.1995 15.8361 83.8329 15.8361" fill="#120C2B"/>
<path d="M97.2806 15.832C99.6058 15.832 101.553 16.7285 103.118 18.5179C104.683 20.3109 105.464 22.6095 105.464 25.4137C105.464 28.218 104.687 30.5166 103.132 32.3096C101.577 34.1025 99.6268 34.999 97.2806 34.999C94.9344 34.999 93.019 34.0416 91.6077 32.1267L91.6077 39.9835L86.9434 41.694L86.9434 16.2337L91.6077 16.2337L91.6077 18.8048C92.998 16.8253 94.8889 15.832 97.2806 15.832ZM96.2056 30.4556C97.5083 30.4556 98.5903 29.9894 99.4518 29.0535C100.31 28.1176 100.74 26.9055 100.74 25.4137C100.74 23.922 100.317 22.7099 99.4693 21.774C98.6218 20.838 97.5328 20.3719 96.2091 20.3719C94.8854 20.3719 93.7859 20.838 92.9174 21.774C92.049 22.7099 91.6148 23.922 91.6148 25.4137C91.6148 26.9055 92.049 28.1176 92.9174 29.0535C93.7859 29.9894 94.8854 30.4556 96.2091 30.4556" fill="#120C2B"/>
<path d="M109.717 18.5717C111.52 16.7465 113.727 15.832 116.335 15.832C118.944 15.832 121.157 16.7465 122.971 18.5717C124.785 20.397 125.696 22.6776 125.696 25.4173C125.696 28.157 124.799 30.4664 123.006 32.2773C121.213 34.0918 118.99 34.999 116.339 34.999C113.688 34.999 111.496 34.0882 109.703 32.2594C107.91 30.4341 107.014 28.1534 107.014 25.4137C107.014 22.6741 107.914 20.3934 109.721 18.5681M119.648 21.774C118.769 20.838 117.663 20.3719 116.339 20.3719C115.015 20.3719 113.909 20.838 113.03 21.774C112.147 22.7099 111.71 23.922 111.71 25.4137C111.71 26.9055 112.151 28.1176 113.03 29.0535C113.909 29.9894 115.012 30.4556 116.339 30.4556C117.666 30.4556 118.769 29.9894 119.648 29.0535C120.527 28.1176 120.968 26.9055 120.968 25.4137C120.968 23.922 120.527 22.7099 119.648 21.774Z" fill="#120C2B"/>
<path d="M135.298 34.9995C132.886 34.9995 130.876 34.4258 129.268 33.2783C127.661 32.1307 126.694 30.5565 126.365 28.552L131.093 28.552C131.485 30.1979 132.931 31.0227 135.431 31.0227C137.452 31.0227 138.464 30.5206 138.464 29.5202C138.464 29.3875 138.446 29.2656 138.415 29.1544C138.383 29.0432 138.327 28.9428 138.25 28.8532C138.173 28.7635 138.093 28.681 138.005 28.6022C137.918 28.5233 137.792 28.4515 137.631 28.3834C137.466 28.3153 137.322 28.2615 137.189 28.2185C137.06 28.1754 136.867 28.118 136.618 28.0499C136.37 27.9818 136.153 27.928 135.967 27.885C135.782 27.8419 135.526 27.7846 135.2 27.72C134.875 27.6555 134.591 27.5873 134.353 27.5192C131.677 26.8737 129.814 26.1673 128.76 25.3999C127.706 24.6325 127.178 23.4814 127.178 21.943C127.178 20.0281 127.889 18.5328 129.314 17.4534C130.739 16.374 132.644 15.8325 135.036 15.8325C137.427 15.8325 139.287 16.3632 140.611 17.4175C141.938 18.4754 142.764 19.9062 143.09 21.7099L138.362 21.7099C137.97 20.462 136.808 19.838 134.875 19.838C132.942 19.838 131.874 20.3508 131.874 21.3728C131.874 21.7745 132.08 22.0649 132.493 22.2406C132.907 22.4199 133.842 22.6745 135.298 23.008C136.755 23.3415 137.907 23.6499 138.755 23.9261C139.602 24.2058 140.407 24.5644 141.167 25.009C141.927 25.4537 142.47 25.988 142.799 26.6119C143.125 27.2359 143.289 27.9925 143.289 28.8819C143.289 30.8613 142.54 32.3782 141.041 33.4217C139.542 34.4688 137.627 34.9923 135.302 34.9923" fill="#120C2B"/>
<path d="M153.966 15.832C156.901 15.832 159.222 16.8684 160.928 18.9375C162.633 21.0066 163.368 23.5777 163.13 26.6509L149.372 26.6509C149.522 28.0781 150.023 29.1683 150.871 29.9213C151.718 30.6779 152.772 31.0581 154.033 31.0581C154.947 31.0581 155.759 30.8537 156.477 30.4413C157.195 30.0289 157.706 29.4695 158.011 28.7559L162.836 28.7559C162.206 30.825 161.096 32.3849 159.509 33.432C157.923 34.4791 156.106 35.0026 154.064 35.0026C151.284 35.0026 149.011 34.099 147.25 32.2988C145.488 30.4951 144.609 28.2144 144.609 25.4532C144.609 22.692 145.488 20.4006 147.25 18.5753C149.011 16.75 151.249 15.8392 153.966 15.8392M153.935 19.7802C152.828 19.7802 151.9 20.085 151.161 20.6982C150.422 21.3114 149.901 22.129 149.596 23.151L158.172 23.151C157.909 22.129 157.412 21.3114 156.673 20.6982C155.934 20.085 155.02 19.7802 153.935 19.7802Z" fill="#120C2B"/>
<defs>
<radialGradient id="paint0_radial_1_130" cx="0" cy="0" r="1" gradientUnits="userSpaceOnUse" gradientTransform="translate(10.7625 23.5902) scale(9.93325 8.5838)">
<stop stop-color="#2806BA"/>
<stop offset="1" stop-color="#5323E5"/>
</radialGradient>
<linearGradient id="paint1_linear_1_130" x1="2.25866" y1="28.6542" x2="12.4377" y2="21.1696" gradientUnits="userSpaceOnUse">
<stop stop-color="#574AFF"/>
<stop offset="0.97" stop-color="#508FFF"/>
</linearGradient>
</defs>
</svg>
