<svg width="233" height="43" viewBox="0 0 233 43" fill="none" xmlns="http://www.w3.org/2000/svg">
<path d="M90.3162 22.0153V0.777344H98.9422C103.16 0.777344 105.855 3.52931 105.855 7.05899C105.855 9.90069 104.206 11.6955 101.225 12.5929L109.312 22.0153H103.762L96.0563 13.0714H94.9145V22.0153H90.3162ZM94.9145 9.36228H98.4028C100.115 9.36228 101.289 8.49479 101.289 7.05899C101.289 5.59329 100.115 4.75574 98.4028 4.75574H94.9145V9.36228Z" fill="#37B971"/>
<path d="M108.234 14.5377C108.234 10.1106 111.754 6.73047 116.574 6.73047C120.728 6.73047 124.375 9.24314 124.375 14.089C124.375 14.4479 124.375 14.8667 124.312 15.4949H112.452C112.705 17.499 114.576 18.6058 116.669 18.6058C118.635 18.6058 120.062 17.7383 120.76 16.7213L123.995 18.9947C122.536 20.9988 119.967 22.3449 116.638 22.3449C111.912 22.3449 108.234 19.2639 108.234 14.5377ZM116.447 10.1106C114.83 10.1106 113.022 10.8883 112.61 12.713H120.031C119.65 10.9482 118.065 10.1106 116.447 10.1106Z" fill="#37B971"/>
<path d="M141.595 18.0375C140.231 20.61 137.377 22.3449 134.079 22.3449C129.386 22.3449 125.676 19.0545 125.676 14.5377C125.676 10.0209 129.386 6.73047 134.079 6.73047C137.377 6.73047 140.231 8.4654 141.595 11.0379L137.821 12.9523C137.187 11.5763 135.823 10.5593 134.079 10.5593C131.796 10.5593 130.052 12.2344 130.052 14.5377C130.052 16.841 131.796 18.5161 134.079 18.5161C135.823 18.5161 137.187 17.499 137.821 16.1231L141.595 18.0375Z" fill="#37B971"/>
<path d="M143.498 22.0157V7.05937H147.842V9.45236C148.382 7.98666 149.999 6.87988 151.775 6.87988C152.219 6.87988 152.694 6.90978 153.233 7.05937V11.2172C152.568 11.0078 151.965 10.8882 151.267 10.8882C149.206 10.8882 147.842 12.4137 147.842 14.8666V22.0157H143.498Z" fill="#37B971"/>
<path d="M169.692 7.05957V22.0159H165.348V20.8194C164.333 21.8065 162.779 22.345 161.447 22.345C157.388 22.345 155.041 19.7126 155.041 15.7343V7.05957H159.386V15.0463C159.386 17.1701 160.305 18.6059 162.366 18.6059C163.477 18.6059 164.65 17.9478 165.348 16.9008V7.05957H169.692Z" fill="#37B971"/>
<path d="M177.62 2.6024C177.62 4.03822 176.384 5.20479 174.829 5.20479C173.339 5.20479 172.071 4.03822 172.071 2.6024C172.071 1.16659 173.339 0 174.829 0C176.384 0 177.62 1.16659 177.62 2.6024ZM172.673 22.0157V7.05941H177.018V22.0157H172.673Z" fill="#37B971"/>
<path d="M192.239 21.3275C191.478 21.7164 189.766 22.195 188.149 22.195C184.597 22.195 181.997 20.4301 181.997 16.7808V10.7983H178.794V7.05918H181.997V2.57227H186.341V7.05918H191.13V10.7983H186.341V15.9732C186.341 17.7978 187.166 18.4858 188.751 18.4858C189.608 18.4858 190.464 18.2166 190.939 17.9773L192.239 21.3275Z" fill="#37B971"/>
<path d="M191.637 14.5377C191.637 10.1106 195.157 6.73047 199.977 6.73047C204.132 6.73047 207.779 9.24314 207.779 14.089C207.779 14.4479 207.779 14.8667 207.715 15.4949H195.855C196.108 17.499 197.979 18.6058 200.073 18.6058C202.039 18.6058 203.466 17.7383 204.163 16.7213L207.398 18.9947C205.939 20.9988 203.371 22.3449 200.041 22.3449C195.316 22.3449 191.637 19.2639 191.637 14.5377ZM199.851 10.1106C198.233 10.1106 196.426 10.8883 196.013 12.713H203.434C203.054 10.9482 201.468 10.1106 199.851 10.1106Z" fill="#37B971"/>
<path d="M209.935 22.0157V7.05937H214.28V9.45236C214.819 7.98666 216.436 6.87988 218.212 6.87988C218.656 6.87988 219.131 6.90978 219.671 7.05937V11.2172C219.005 11.0078 218.402 10.8882 217.705 10.8882C215.643 10.8882 214.28 12.4137 214.28 14.8666V22.0157H209.935Z" fill="#37B971"/>
<path d="M232.863 17.4691C232.863 20.3706 230.231 22.3448 226.837 22.3448C224.047 22.3448 221.668 21.4176 220.304 19.4732L223.286 17.0802C223.983 18.187 225.315 18.8152 226.837 18.8152C227.725 18.8152 228.581 18.4861 228.581 17.7383C228.581 17.1102 228.201 16.7512 226.457 16.3025L225.284 16.0333C222.366 15.3154 220.844 13.5505 220.907 11.2473C220.971 8.4953 223.508 6.73047 226.869 6.73047C229.279 6.73047 231.15 7.59791 232.355 9.2431L229.501 11.4267C228.772 10.5593 227.852 10.1106 226.806 10.1106C226.045 10.1106 225.22 10.4396 225.22 11.1276C225.22 11.5763 225.442 12.0848 226.774 12.4139L228.264 12.8326C231.119 13.5505 232.863 14.8667 232.863 17.4691Z" fill="#37B971"/>
<path d="M0 18.5759L3.55177 15.794C4.66169 17.3794 6.56444 18.3067 8.40374 18.3067C10.2114 18.3067 11.4481 17.4692 11.4481 16.2427C11.4481 15.0462 10.4968 14.2087 8.2769 13.4908L6.37415 12.8626C2.75896 11.6661 0.82452 9.69187 0.82452 6.79033C0.82452 2.78205 4.05917 0.418945 8.43544 0.418945C11.1944 0.418945 13.6045 1.31632 15.5707 3.35039L12.4946 6.31175C11.4481 5.08534 10.0211 4.48708 8.49889 4.48708C6.945 4.48708 5.48622 5.11524 5.48622 6.37156C5.48622 7.65781 6.56444 8.22617 8.94285 9.03381L10.7505 9.66197C14.0485 10.7986 16.1415 12.7729 16.1098 15.9735C16.0781 19.7724 12.8752 22.3748 8.2452 22.3748C4.66169 22.3748 1.61732 20.9091 0 18.5759Z" fill="#11314A"/>
<path d="M38.0547 22.0158V14.1189C38.0547 12.0549 37.3253 10.4995 35.3274 10.4995C34.0272 10.4995 32.8856 11.1874 32.283 12.2643C32.3782 12.6831 32.4099 12.9822 32.4099 13.401V22.0158H28.0653V14.1189C28.0653 12.0549 27.3359 10.4995 25.3381 10.4995C24.1013 10.4995 22.9596 11.1575 22.4205 12.0848V22.0158H18.0759V7.0595H22.4205V8.22607C23.245 7.32869 24.8306 6.73047 26.2894 6.73047C28.1604 6.73047 29.6826 7.47827 30.7608 8.70469C31.7439 7.62782 33.5515 6.73047 35.9299 6.73047C40.4014 6.73047 42.3993 9.69182 42.3993 13.401V22.0158H38.0547Z" fill="#11314A"/>
<path d="M44.0167 14.5376C44.0167 10.2901 47.2513 6.73047 51.4689 6.73047C53.6571 6.73047 55.3379 7.7774 56.0356 8.73459V7.0595H60.3803V22.0158H56.0356V20.3407C55.3379 21.2979 53.6571 22.3448 51.4689 22.3448C47.2513 22.3448 44.0167 18.7852 44.0167 14.5376ZM56.3843 14.5376C56.3843 12.2044 54.7672 10.4695 52.3887 10.4695C50.0101 10.4695 48.3931 12.2044 48.3931 14.5376C48.3931 16.8708 50.0101 18.6058 52.3887 18.6058C54.7672 18.6058 56.3843 16.8708 56.3843 14.5376Z" fill="#11314A"/>
<path d="M63.1072 22.0157V7.05937H67.4519V9.45236C67.9909 7.98665 69.6084 6.87988 71.3842 6.87988C71.8282 6.87988 72.3039 6.90978 72.8429 7.05937V11.2172C72.1769 11.0078 71.5745 10.8882 70.8768 10.8882C68.8153 10.8882 67.4519 12.4137 67.4519 14.8666V22.0157H63.1072Z" fill="#11314A"/>
<path d="M87.7477 21.3275C86.9866 21.7164 85.2742 22.195 83.6567 22.195C80.1051 22.195 77.5045 20.4301 77.5045 16.7808V10.9478H74.3016V7.05916H77.5045V2.57227H81.8492V7.05916H86.638V10.9478H81.8492V15.9731C81.8492 17.7978 82.6736 18.4858 84.2594 18.4858C85.1155 18.4858 85.9719 18.2166 86.4476 17.9773L87.7477 21.3275Z" fill="#11314A"/>
<path d="M0.17627 38.9519L4.94149 28.6574H6.50938L11.2746 38.9519H9.39926L8.15414 36.255H3.26597L2.03624 38.9519H0.17627ZM5.71005 30.9483L3.95769 34.7471H7.46244L5.71005 30.9483ZM12.0965 38.9519V31.7022H13.7874V32.4707C14.31 31.8617 15.0632 31.5573 16.047 31.5573C16.9591 31.5573 17.6866 31.8376 18.2298 32.3982C18.7832 32.9492 19.0599 33.6887 19.0599 34.6166V38.9519H17.369V34.8776C17.369 34.288 17.2204 33.8288 16.9232 33.5001C16.6363 33.1715 16.2212 33.0072 15.6781 33.0072C14.7763 33.0072 14.146 33.389 13.7874 34.1526V38.9519H12.0965ZM27.316 39.1259C26.4449 39.1259 25.6558 38.9567 24.9488 38.6184C24.2519 38.2801 23.7395 37.8306 23.4116 37.27L24.8258 36.2115C25.4304 37.0912 26.2758 37.531 27.3621 37.531C27.8847 37.531 28.31 37.415 28.6379 37.183C28.9659 36.951 29.1298 36.6417 29.1298 36.255C29.1298 35.5687 28.6123 35.0468 27.5773 34.6891L26.3783 34.2831C25.5072 33.9835 24.8616 33.6017 24.4415 33.1377C24.0213 32.664 23.8112 32.0792 23.8112 31.3833C23.8112 30.5036 24.1392 29.8028 24.795 29.2809C25.4611 28.7492 26.3117 28.4834 27.3467 28.4834C28.7302 28.4834 29.8318 28.9522 30.6516 29.8898L29.4065 31.0353C28.8532 30.3973 28.1665 30.0783 27.3467 30.0783C26.8651 30.0783 26.4552 30.1846 26.117 30.3973C25.7891 30.61 25.6251 30.9 25.6251 31.2673C25.6251 31.6249 25.748 31.9101 25.994 32.1227C26.2502 32.3354 26.6806 32.5432 27.2852 32.7462L28.392 33.1377C30.1034 33.7466 30.9591 34.7519 30.9591 36.1535C30.9591 37.0428 30.6209 37.763 29.9445 38.314C29.2682 38.8552 28.392 39.1259 27.316 39.1259ZM31.0186 38.9519L35.7838 28.6574H37.3517L42.1169 38.9519H40.2416L38.9965 36.255H34.1083L32.8786 38.9519H31.0186ZM36.5524 30.9483L34.8001 34.7471H38.3048L36.5524 30.9483ZM49.3335 29.6288C50.0405 30.2668 50.3942 31.0643 50.3942 32.0212C50.3942 32.9782 50.0405 33.7805 49.3335 34.4281C48.6265 35.0661 47.7194 35.3851 46.6126 35.3851H44.9373V38.9519H43.1387V28.6574H46.6126C47.7194 28.6574 48.6265 28.9812 49.3335 29.6288ZM48.0731 33.2972C48.442 32.9589 48.6264 32.5335 48.6264 32.0212C48.6264 31.5089 48.442 31.0884 48.0731 30.7598C47.7143 30.4215 47.2225 30.2523 46.5974 30.2523H44.9373V33.7902H46.5974C47.2225 33.7902 47.7143 33.6258 48.0731 33.2972ZM57.8494 39.0969C56.6911 39.0969 55.7228 38.7393 54.944 38.0239C54.1754 37.299 53.7913 36.4 53.7913 35.3271C53.7913 34.2541 54.1754 33.36 54.944 32.6447C55.7228 31.9197 56.6911 31.5573 57.8494 31.5573C58.6383 31.5573 59.3453 31.7361 59.9704 32.0937C60.6057 32.4514 61.0928 32.9395 61.4309 33.5582L59.9552 34.3121C59.7602 33.9255 59.4787 33.6162 59.1098 33.3842C58.7409 33.1522 58.3204 33.0362 57.8494 33.0362C57.1727 33.0362 56.6143 33.2585 56.1736 33.7032C55.733 34.1381 55.5126 34.6794 55.5126 35.3271C55.5126 35.9747 55.733 36.5209 56.1736 36.9655C56.6143 37.4005 57.1727 37.618 57.8494 37.618C58.3204 37.618 58.7409 37.502 59.1098 37.27C59.4787 37.038 59.7602 36.7287 59.9552 36.342L61.4309 37.096C61.0928 37.7146 60.6057 38.2028 59.9704 38.5604C59.3453 38.9181 58.6383 39.0969 57.8494 39.0969ZM68.9249 38.0095C68.1562 38.7344 67.2031 39.0969 66.0656 39.0969C64.928 39.0969 63.9698 38.7344 63.1911 38.0095C62.4224 37.2748 62.0383 36.3807 62.0383 35.3271C62.0383 34.2735 62.4224 33.3842 63.1911 32.6592C63.9698 31.9246 64.928 31.5573 66.0656 31.5573C67.2031 31.5573 68.1562 31.9246 68.9249 32.6592C69.7037 33.3842 70.0933 34.2735 70.0933 35.3271C70.0933 36.3807 69.7037 37.2748 68.9249 38.0095ZM66.0656 37.618C66.7317 37.618 67.28 37.4005 67.7105 36.9655C68.1512 36.5209 68.3715 35.9747 68.3715 35.3271C68.3715 34.6794 68.1512 34.1381 67.7105 33.7032C67.28 33.2585 66.7317 33.0362 66.0656 33.0362C65.3894 33.0362 64.8309 33.2585 64.3903 33.7032C63.9597 34.1381 63.7444 34.6794 63.7444 35.3271C63.7444 35.9747 63.9597 36.5209 64.3903 36.9655C64.8309 37.4005 65.3894 37.618 66.0656 37.618ZM81.2013 38.9519V34.9066C81.2013 34.3169 81.073 33.8578 80.8168 33.5292C80.5605 33.1908 80.1764 33.0217 79.664 33.0217C79.2744 33.0217 78.9312 33.128 78.6341 33.3406C78.3369 33.5437 78.1115 33.8191 77.9579 34.1671C77.9883 34.3218 78.0039 34.4764 78.0039 34.6311V38.9519H76.3129V34.9066C76.3129 34.3169 76.1795 33.8578 75.9132 33.5292C75.657 33.1908 75.2729 33.0217 74.7604 33.0217C74.3915 33.0217 74.0585 33.1135 73.7613 33.2972C73.4642 33.4808 73.2438 33.7321 73.1003 34.0511V38.9519H71.4094V31.7022H73.1003V32.3837C73.5613 31.8327 74.2429 31.5573 75.1446 31.5573C76.0875 31.5573 76.8254 31.9149 77.3581 32.6302C77.9114 31.9149 78.7569 31.5573 79.8945 31.5573C80.8476 31.5573 81.5854 31.8424 82.108 32.4127C82.6305 32.9734 82.8918 33.7128 82.8918 34.6311V38.9519H81.2013ZM84.6705 41.7646V31.7022H86.3615V32.3692C86.9149 31.8279 87.6628 31.5573 88.6054 31.5573C89.7227 31.5573 90.6399 31.9246 91.3571 32.6592C92.0848 33.3938 92.4486 34.2831 92.4486 35.3271C92.4486 36.371 92.0848 37.2603 91.3571 37.995C90.6399 38.7296 89.7227 39.0969 88.6054 39.0969C87.6628 39.0969 86.9149 38.8214 86.3615 38.2704V41.7646H84.6705ZM88.4209 37.647C89.0874 37.647 89.6353 37.4247 90.0658 36.98C90.4964 36.5257 90.7117 35.9747 90.7117 35.3271C90.7117 34.6794 90.4964 34.1333 90.0658 33.6887C89.6353 33.2343 89.0874 33.0072 88.4209 33.0072C87.54 33.0072 86.8532 33.3406 86.3615 34.0076V36.632C86.8431 37.3086 87.5294 37.647 88.4209 37.647ZM97.093 39.0969C95.9757 39.0969 95.0589 38.7296 94.3413 37.995C93.6242 37.2603 93.2654 36.371 93.2654 35.3271C93.2654 34.2831 93.6242 33.3938 94.3413 32.6592C95.0589 31.9246 95.9757 31.5573 97.093 31.5573C98.0355 31.5573 98.7839 31.8279 99.3373 32.3692V31.7022H101.028V38.9519H99.3373V38.2704C98.7839 38.8214 98.0355 39.0969 97.093 39.0969ZM97.2926 37.647C98.174 37.647 98.8557 37.3086 99.3373 36.632V34.0076C98.8451 33.3406 98.1639 33.0072 97.2926 33.0072C96.6266 33.0072 96.0783 33.2343 95.6481 33.6887C95.2176 34.1333 95.0023 34.6794 95.0023 35.3271C95.0023 35.9747 95.2176 36.5257 95.6481 36.98C96.0783 37.4247 96.6266 37.647 97.2926 37.647ZM102.936 38.9519V31.7022H104.627V32.4707C105.15 31.8617 105.903 31.5573 106.887 31.5573C107.799 31.5573 108.526 31.8376 109.07 32.3982C109.623 32.9492 109.9 33.6887 109.9 34.6166V38.9519H108.209V34.8776C108.209 34.288 108.06 33.8288 107.763 33.5001C107.476 33.1715 107.061 33.0072 106.518 33.0072C105.616 33.0072 104.986 33.389 104.627 34.1526V38.9519H102.936ZM114.051 41.7646H112.191L113.728 38.5604L110.423 31.7022H112.283L114.635 36.835L117.002 31.7022H118.878L114.051 41.7646Z" fill="#11314A"/>
</svg>
