<svg width="190" height="30" viewBox="0 0 190 30" fill="none" xmlns="http://www.w3.org/2000/svg">
<path d="M18.539 3.34878C18.3764 4.59861 16.4662 6.43993 14.2227 6.53312C11.9115 6.59388 9.45938 4.90449 7.04519 4.96931C5.75546 5.00374 4.25168 5.4109 4.18936 6.61212C4.1731 7.5743 5.24065 8.0159 6.85824 7.99969C8.23197 7.93487 8.53814 7.8032 9.62466 7.30287C9.08276 7.99969 8.01249 8.43926 6.8474 8.51826C4.91551 8.48788 3.97531 7.5581 3.80731 6.50273C3.67997 5.28328 5.2244 2.98821 8.61401 2.99024C11.6405 2.98821 14.0737 4.4001 15.7888 4.43048C16.9946 4.4163 17.737 3.92204 18.539 3.34878Z" fill="black"/>
<path d="M15.217 8.58902C15.9378 8.5951 16.6125 9.07721 16.6125 9.73352C16.6125 10.325 15.9107 10.7929 15.2116 10.7909C14.4746 10.7889 13.361 10.1852 14.1522 9.26965C14.1522 9.26965 12.9925 9.6606 13.3204 10.6552C14.4123 11.2771 15.9567 12.2474 15.6533 13.874C15.3119 15.6991 11.7028 16.1407 11.1175 17.747C10.4835 16.6046 9.51892 16.0678 8.27525 16.0779C6.15912 16.0941 4.90732 17.3662 4.9588 18.298C5.0455 19.7666 6.31085 20.3865 9.03934 20.3358C11.6161 20.2386 13.1659 19.406 14.2199 18.1137C13.884 19.0313 12.5319 21.1704 8.86593 21.2028C5.41671 21.1704 4.30309 19.2764 4.26245 17.905C4.3058 15.3588 7.00991 14.346 8.84425 14.3297C10.8195 14.3115 11.6594 14.984 12.8164 15.8814C12.8164 15.8814 13.4504 14.8483 12.7162 13.9084C11.3804 12.1988 9.17752 12.5472 8.66813 10.4303C8.24545 8.666 11.4617 6.80847 12.4235 6.59375C11.6838 7.17106 10.4835 7.80915 11.2449 9.25547C11.5755 9.8895 12.9302 10.4 12.9302 10.4C12.9085 9.85709 13.5371 8.57079 15.217 8.58902Z" fill="black"/>
<path d="M17.8534 9.59198L19.6119 7.73242C19.6119 7.73242 21.0046 7.87827 21.7443 9.17672L23.1776 7.77496C23.1776 7.77496 24.256 9.05113 25.7327 7.85194C25.7327 7.85194 25.039 9.89583 23.2616 9.95457C22.6249 9.97483 21.9068 9.57982 21.9068 9.57982L21.9041 15.2071C21.9041 15.2071 21.7795 15.8614 22.9988 16.066C22.9988 16.066 21.7822 17.0059 20.9558 17.9235C19.918 16.9735 18.6771 16.2199 18.6771 16.2199C18.6771 16.2199 19.2488 16.066 19.2542 15.4401L19.2596 9.95254C19.2596 9.95254 19.1323 9.09772 17.8534 9.59198Z" fill="black"/>
<path fill-rule="evenodd" clip-rule="evenodd" d="M30.5475 7.79102C30.5475 7.79102 28.594 9.01451 26.8815 9.46219C25.5485 9.8106 25.5837 10.7586 25.5837 10.7586L25.5891 15.8876C25.5891 15.8876 25.2721 16.87 28.0087 17.9821C28.0087 17.9821 28.7945 16.9308 29.9162 16.076C29.9162 16.076 30.0977 17.3744 31.9185 17.8808C31.9185 17.8808 32.4415 16.8133 33.5822 16.1793C33.0674 16.0071 32.3656 15.8005 32.3629 14.9841L32.3439 9.9686C32.3439 9.9686 32.287 9.77616 32.7964 9.36495L30.5475 7.79102ZM28.7647 9.12998C28.193 9.33457 28.025 9.7316 28.0439 10.1266V15.0327C28.025 15.4743 28.3826 15.997 28.9977 15.997C29.843 15.997 29.8485 15.286 29.8485 15.286L29.8431 10.1894C29.8431 10.1894 29.9081 9.69919 28.7647 9.12998Z" fill="black"/>
<path d="M36.6142 7.84896C35.7634 8.76861 34.6064 9.78954 34.6064 9.78954C34.6064 9.78954 35.8339 9.91108 35.7851 10.5796L35.8013 15.3905C35.7932 16.1278 35.1782 16.1643 35.1782 16.1643C35.1782 16.1643 36.3622 16.8875 37.1453 17.9509C37.1453 17.9509 38.0042 16.8247 38.9363 16.142C38.9363 16.142 38.3077 16.1643 38.3077 15.3399L38.2887 10.5937C38.3049 10.3101 38.7954 9.85031 39.2208 9.85031C40.0905 9.85031 40.2558 10.3729 40.2368 10.7862V15.7045C40.2179 16.3709 40.2206 17.0414 41.9601 17.9286C41.9601 17.9286 42.8596 16.851 43.9841 16.1359C43.9841 16.1359 42.7838 16.2271 42.7838 15.2122L42.7702 10.2473C42.7702 10.2473 42.7702 9.589 43.0872 9.42898C43.0872 9.42898 41.83 8.72405 40.86 7.8125L38.3537 9.8969C37.9094 8.09812 36.6142 7.84896 36.6142 7.84896Z" fill="black"/>
<path fill-rule="evenodd" clip-rule="evenodd" d="M50.5195 4.29039C50.2729 4.06554 49.9424 4.40585 49.9424 4.40585L48.6553 5.58479L48.6445 4.9467C48.6174 4.42813 48.9154 3.89944 49.6037 3.49431C49.6037 3.49431 47.6338 3.36264 47.0025 5.1756C47.0025 5.1756 46.2547 4.82922 45.7697 4.86365C45.9214 5.09255 45.9268 5.43691 45.9268 5.43691V8.13509L45.2684 8.13104V9.00005L45.9566 8.996L45.9431 15.3849C45.9485 15.9724 45.3551 16.1385 45.3551 16.1385C45.3551 16.1385 46.6069 16.7928 47.4361 18.0993C47.4361 18.0993 48.1568 16.8859 49.9478 16.2175C49.9478 16.2175 48.6608 16.021 48.6391 15.2695L48.6445 8.99802L49.7825 9.00005V8.13104L48.6608 8.13307L48.658 7.98722L50.2377 6.95211C51.9013 5.72658 50.9964 4.50308 50.5195 4.29039ZM48.6364 5.85622V7.7725C48.6364 7.7725 50.3786 6.80221 48.6364 5.85622Z" fill="black"/>
<path d="M56.5996 3.11523C56.5996 3.11523 55.4779 5.6149 52.2373 5.72834L52.2481 7.98695H51.4651V8.92077L52.2238 8.9228L52.2373 21.571H52.7792V19.1544C52.7792 19.1544 52.7277 18.1031 53.5948 17.9897L54.3372 17.9066C54.3372 17.9066 54.9712 17.9127 54.955 17.3901L54.9414 8.93293L56.2609 8.92685V7.991L54.9902 7.98695L54.9875 5.14292C54.9875 5.14292 58.2091 7.18276 59.3633 3.31375C59.3633 3.31375 58.0628 4.88769 56.5996 3.11523Z" fill="black"/>
<path d="M59.4392 7.79442C58.4882 8.87208 57.426 9.41293 57.426 9.41293C57.426 9.41293 58.2931 9.54054 58.312 10.2597L58.3554 15.6621C58.3581 16.2313 57.8677 16.3488 57.8677 16.3488C58.8241 16.9302 59.9919 18.0301 59.9919 18.0301C59.9919 18.0301 61.9645 16.2637 62.9399 15.8039C62.5904 17.074 64.7309 17.9794 64.7309 17.9794L66.4487 16.1989C66.4487 16.1989 65.5329 16.0247 65.4923 15.2813L65.4733 10.1563C65.4923 9.57093 65.9827 9.28531 65.9827 9.28531C64.6659 8.66748 64.2459 7.69922 64.2459 7.69922C63.5441 8.81131 62.2923 9.42913 62.2923 9.42913C62.2923 9.42913 62.8695 9.71475 62.8695 10.126L62.883 15.0625C62.8884 15.4433 62.5524 15.9821 61.829 15.9821C61.2356 15.9821 60.9403 15.4433 60.8969 15.2063L60.8563 9.76539C60.8563 8.54392 59.4392 7.79442 59.4392 7.79442Z" fill="black"/>
<path d="M67.7546 9.67097L69.5321 7.80534C69.5321 7.80534 70.6782 8.12337 71.2608 9.30028L72.3473 7.78711C72.3473 7.78711 73.1005 8.86679 74.2006 7.88029C74.2006 7.88029 74.3252 10.2868 72.5722 10.2989C71.8623 10.303 71.3502 9.81277 71.3502 9.81277L71.3475 15.2071C71.3475 15.2071 71.1741 16.2604 72.7916 16.1936C72.7916 16.1936 71.3177 16.9877 70.6186 18.0005C69.5809 17.0505 68.1502 16.3212 68.1502 16.3212C68.1502 16.3212 68.8303 16.1855 68.8655 15.5981L68.8412 10.5724C68.8412 10.5724 68.9224 9.81074 67.7546 9.67097Z" fill="black"/>
<path d="M75.6963 8.09067L75.1625 8.08662L75.1598 9.07312L75.7152 9.06907L75.745 15.7051C75.7721 16.1487 75.3224 16.3716 75.3224 16.3716C75.3224 16.3716 76.3493 16.9671 77.3057 17.8706C78.3028 16.8152 79.7145 16.246 79.7145 16.246C79.7145 16.246 78.3028 16.1325 78.3028 15.4985L78.2839 9.05691L79.6684 9.06299L79.663 8.08662L78.3028 8.09067L78.2893 5.14941L75.7071 5.85232L75.6963 8.09067Z" fill="black"/>
<path fill-rule="evenodd" clip-rule="evenodd" d="M85.8625 7.75195C84.9033 8.48322 84.1636 8.52373 83.5404 8.76883C82.4702 9.1922 80.9826 9.48187 80.9962 10.9768L81.0043 15.4069C81.026 17.2908 83.115 17.4204 84.375 17.9329C85.2203 16.7358 87.0465 15.7533 87.0465 15.7533L86.7675 15.6257C86.7675 15.6257 86.1091 16.1584 85.2393 16.1321C83.6271 16.0855 83.6109 14.8276 83.6109 14.8276V12.8992C83.6109 12.8992 85.7324 12.2226 86.8542 11.3333C87.3365 10.9484 87.5099 10.6912 87.5316 10.1524C87.5695 9.22461 86.5561 8.59463 85.8625 7.75195ZM83.9143 9.02204C83.9143 9.02204 83.5892 9.15979 83.6109 10.2516L83.6082 12.727C83.6082 12.727 87.0357 11.704 83.9143 9.02204Z" fill="black"/>
<path d="M88.0436 9.39119C88.8754 8.90098 89.9673 7.67343 89.9673 7.67343C89.9673 7.67343 90.9482 7.93677 91.6689 9.21091C92.2596 8.63765 92.853 7.65925 92.853 7.65925C92.853 7.65925 93.9422 9.07924 95.1913 7.65723C95.1913 7.65723 94.9258 10.0597 93.0887 10.1893C92.3815 10.2399 91.7367 9.55324 91.7367 9.55324V15.057C91.7367 15.9564 93.2025 16.1022 93.2025 16.1022C93.2025 16.1022 91.6933 16.7241 90.9482 17.8686C89.9104 16.9185 88.7183 16.1853 88.7183 16.1853C88.7183 16.1853 89.1626 16.1204 89.1951 15.533L89.2033 10.2825C89.2033 9.30206 88.0436 9.39119 88.0436 9.39119Z" fill="black"/>
<path fill-rule="evenodd" clip-rule="evenodd" d="M103.339 6.18667C103.339 6.18667 102.515 6.60801 101.859 6.60801C101.234 6.60801 100.738 6.20085 100.74 5.78559C100.743 5.17789 101.616 4.87202 102.428 4.87202C104.081 4.87202 104.417 6.58572 104.417 6.58572L100.545 14.9051C98.5782 14.9213 96.9254 16.3616 96.9471 18.1016C96.9688 19.9044 98.9576 21.1887 101.561 21.1766C105.566 21.1583 106.75 18.3244 106.75 18.3244C105.967 18.9402 105.217 20.3116 101.477 20.2994C99.6051 20.2934 97.5649 19.716 97.5215 18.4986C97.4971 17.818 98.478 17.1212 99.6566 17.1212C101.055 17.1212 101.9 17.8484 101.9 17.8484L104.767 15.5574L104.545 15.3751L103.848 15.8916C102.811 15.0489 101.158 14.9152 101.158 14.9152L102.347 12.3102L106.189 12.3143L107.506 16.4871C107.913 17.581 108.696 17.2974 110.018 18.0348L111.476 15.8207C111.476 15.8207 110.346 16.0456 109.988 15.0793L106.902 5.25284C106.902 5.25284 106.281 2.83015 103.128 2.82812C101.315 2.82812 99.681 3.74777 99.681 5.15763C99.681 6.06513 100.673 6.86729 101.878 6.86729C102.832 6.86729 103.339 6.18667 103.339 6.18667ZM104.65 7.31496L102.686 11.6134L105.97 11.6195L104.65 7.31496Z" fill="black"/>
<path d="M112.635 15.3803C112.662 15.826 111.806 16.0286 111.806 16.0286C111.806 16.0286 113.015 16.8672 114.055 17.9955C114.895 16.7294 116.296 16.1866 116.296 16.1866C116.296 16.1866 115.266 16.1319 115.266 15.4978V3.8584L112.635 4.79425V15.3803Z" fill="black"/>
<path d="M118.331 15.326C118.328 15.8385 117.764 16.0958 117.764 16.0958C117.764 16.0958 118.94 16.979 119.799 18.0121C120.677 16.6771 122.089 16.1788 122.089 16.1788C122.089 16.1788 120.954 16.1322 120.954 15.4982V3.68457L118.331 4.79868V15.326Z" fill="black"/>
<path fill-rule="evenodd" clip-rule="evenodd" d="M128.936 7.63672C125.942 9.25117 123.88 8.84401 123.855 10.3815L123.88 15.8487C123.874 16.8514 124.953 17.3903 126.115 17.9615L128.223 16.0918L128.229 17.1269C128.212 18.3403 129.418 18.2755 129.399 19.4463C129.385 20.3173 128.462 20.7326 127.535 20.7286C125.89 20.7225 125.476 20.0257 125.476 20.0257C125.476 20.0257 125.503 20.1269 125.92 20.1209C126.73 20.1087 127.24 19.7643 127.237 19.183C127.231 18.6259 126.646 18.2451 125.917 18.2552C125.148 18.2654 124.584 18.7029 124.587 19.1911C124.592 19.9689 125.207 20.998 127.719 20.9899C130.223 20.9838 131.935 19.5739 131.935 18.4679C131.935 17.605 130.857 17.4024 130.857 16.4017L130.792 9.71707C130.786 9.31802 131.236 8.99391 131.236 8.99391C129.87 8.41862 128.936 7.63672 128.936 7.63672ZM128.196 9.86292L126.885 8.86832C126.885 8.86832 126.456 9.05671 126.454 9.86697L126.467 15.2532C126.505 15.8265 126.771 16.0756 127.408 16.0614C127.998 16.0473 128.21 15.8082 128.21 15.2107L128.196 9.86292Z" fill="black"/>
<path fill-rule="evenodd" clip-rule="evenodd" d="M138.62 7.63086C137.923 8.04207 136.528 8.61533 135.864 8.78751C133.493 9.40736 133.463 9.65044 133.463 10.9772L133.466 15.4884C133.466 17.51 135.569 17.2102 136.921 17.9394C137.221 16.9307 139.102 15.7497 139.102 15.7497L138.996 15.6606C138.996 15.6606 138.492 15.9827 137.623 15.9563C136.01 15.9097 136.032 14.828 136.032 14.828V13.0779C136.032 13.0779 137.896 12.2899 139.178 11.3864C139.69 11.0259 139.833 10.6916 139.855 10.1528C139.893 9.22505 139.191 9.00426 138.62 7.63086ZM136.382 8.90905C136.382 8.90905 136.01 9.16023 136.032 10.2521L136.029 12.8712C136.029 12.8712 139.232 12.0448 136.382 8.90905Z" fill="black"/>
<path d="M142.852 7.62012L140.76 9.4817C140.76 9.4817 141.979 9.54449 141.979 10.1806L142.012 15.4007C141.998 16.0853 141.605 16.2433 141.605 16.2433C141.605 16.2433 142.638 16.924 143.448 17.9591C144.039 16.9564 145.247 16.1319 145.247 16.1319C145.247 16.1319 144.705 15.7774 144.681 15.2731L144.659 10.531C144.77 10.0934 145.147 9.87265 145.51 9.86252C145.968 9.85239 146.339 10.1259 146.363 10.4682L146.407 15.3743C146.407 15.8423 146.019 16.0691 146.019 16.0691C146.019 16.0691 146.986 16.9746 147.653 18.0036C148.385 16.7923 149.582 16.1259 149.582 16.1259C149.582 16.1259 148.937 15.7491 148.937 15.0989L148.918 10.3568C149.021 9.93545 149.295 9.76124 149.726 9.70452C150.167 9.64578 150.555 9.89898 150.639 10.2292L150.693 15.982C150.693 16.93 151.753 17.3899 152.855 17.8882C153.359 16.8207 154.627 15.9841 154.627 15.9841C154.627 15.9841 153.191 16.0975 153.191 15.111L153.156 9.72073C153.172 9.27508 153.663 9.01985 153.663 9.01985C152.322 8.5742 151.254 7.6343 151.254 7.6343L148.872 9.80378C148.981 8.66941 147.214 7.66671 147.214 7.66671L144.637 10.0084C144.448 8.00297 142.852 7.62012 142.852 7.62012Z" fill="black"/>
<path fill-rule="evenodd" clip-rule="evenodd" d="M160.873 7.6084C157.212 9.71508 156.131 9.38288 156.131 10.4362L156.134 16.0129C156.134 17.2465 157.535 17.2181 158.884 17.9474C159.521 17.0419 160.729 16.2843 161.783 15.7313L161.653 15.626C161.653 15.626 161.054 15.9865 160.182 15.9744C158.399 15.9501 158.591 14.8278 158.591 14.8278L158.594 13.0412C158.594 13.0412 159.987 12.4842 161.32 11.6152C161.851 11.2688 162.238 10.7137 162.271 10.1729C162.336 9.17626 161.529 8.93723 160.873 7.6084ZM158.673 9.00205C158.673 9.00205 158.573 9.16005 158.591 10.2519L158.589 12.8002C158.971 12.626 161.594 11.6131 158.673 9.00205Z" fill="black"/>
<path fill-rule="evenodd" clip-rule="evenodd" d="M184.901 7.54199C182.703 9.21924 179.929 9.0977 179.883 10.7587L179.896 16.0133C179.951 16.9998 181.121 17.1902 182.473 17.9194C183.56 16.7243 184.89 16.1531 185.941 15.6001L185.811 15.4947C185.811 15.4947 184.755 16.1126 183.882 16.1004C182.099 16.0761 182.354 14.8283 182.354 14.8283V12.8999C182.354 12.8999 183.489 12.4866 185.082 11.6338C185.654 11.3259 186.161 10.8823 186.196 10.3435C186.258 9.34686 185.573 9.21924 184.901 7.54199ZM182.636 8.92349C182.636 8.92349 182.332 9.16049 182.354 10.2523L182.351 12.7094C183.882 12.2111 184.671 10.307 182.636 8.92349Z" fill="black"/>
<path d="M170.746 7.67969L169.01 9.4096C169.01 9.4096 170.307 9.54735 170.259 10.2219L170.283 15.4947C170.307 15.7378 169.82 16.0841 169.82 16.0841C169.82 16.0841 170.933 16.9673 171.37 17.885C172.204 16.9147 173.407 16.0841 173.407 16.0841C173.407 16.0841 172.76 15.8249 172.76 15.3225V10.55C172.944 10.1348 173.291 9.8593 173.73 9.84107C174.147 9.82486 174.632 10.1186 174.586 10.4467L174.607 15.6507C174.607 17.2773 176.528 17.8485 176.528 17.8485L178.173 16.0659C178.173 16.0659 177.106 16.0659 177.084 15.4602L177.06 9.90791C177.13 9.4096 177.501 9.15032 177.501 9.15032C176.23 8.76949 175.35 7.8863 175.35 7.8863L172.83 9.96261C172.713 8.07672 170.746 7.67969 170.746 7.67969Z" fill="black"/>
<path d="M165.474 7.69727C164.78 8.47512 163.301 9.28943 163.301 9.28943C163.301 9.28943 164.317 9.39679 164.317 10.0349V15.4252C164.338 15.8749 163.737 16.1524 163.737 16.1524C163.737 16.1524 164.78 16.9829 165.449 17.8843C166.259 16.9485 167.373 16.1341 167.373 16.1341C167.373 16.1341 166.79 15.8586 166.815 15.409L166.793 9.99639C166.815 9.49403 167.349 9.23677 167.349 9.23677C166.354 8.63109 165.474 7.69727 165.474 7.69727Z" fill="black"/>
<path d="M164.089 4.74052C164.089 4.14903 164.731 3.66895 165.522 3.66895C166.314 3.66895 166.956 4.14903 166.956 4.74052C166.956 5.33201 166.314 5.81209 165.522 5.81209C164.731 5.81209 164.089 5.33201 164.089 4.74052Z" fill="black"/>
<path d="M35.4138 23.6314L35.3488 24.4842H35.468C35.5547 23.9332 35.7362 23.8319 36.4732 23.8319H37.9824L34.9315 26.9879V27.079H38.9064L39.115 26.1614H39.0012C38.779 26.7428 38.6056 26.8623 37.8822 26.8623H35.9368L39.0663 23.6314H35.4138ZM43.9515 23.6314H40.2991V23.7225C40.7678 23.7164 40.9629 23.838 40.9629 24.1094V26.5524C40.9629 26.8481 40.841 26.994 40.2991 26.9879V27.079H44.0057L44.3796 26.2202H44.2387C43.9651 26.7083 43.5695 26.8785 43.1197 26.8785H41.9681C41.7676 26.8785 41.6864 26.7975 41.6864 26.6071V25.3633H42.846C43.3148 25.3633 43.4746 25.5132 43.4746 25.8738H43.5966V24.6604H43.4746C43.4746 24.9926 43.3148 25.1628 42.8731 25.1628H41.6864V23.8319H43.1197C43.5424 23.8319 43.7889 23.9838 43.8919 24.395H44.0057L43.9515 23.6314ZM45.4255 23.7225C45.981 23.7164 46.1218 23.8481 46.1218 24.154V26.5524C46.1218 26.8886 45.9945 26.9879 45.4255 26.9879V27.079H47.5416V26.9879C47.0052 26.9879 46.8453 26.8927 46.8453 26.5564V24.158C46.8453 23.7934 47.0539 23.7164 47.5416 23.7225V23.6314H45.4255V23.7225ZM50.2349 23.8522V26.5524C50.2349 26.8218 50.1347 26.994 49.5657 26.9879V27.079H51.6303V26.9879C51.1724 26.9879 50.9583 26.8987 50.9583 26.5929V23.8522H51.717C52.24 23.8522 52.4811 24.0628 52.5407 24.4153H52.6681L52.6355 23.6314H48.5685L48.5333 24.4153H48.6553C48.6878 24.0527 48.975 23.8522 49.4112 23.8522H50.2349ZM53.3102 23.7225C53.928 23.7124 54.0066 23.8582 54.0066 24.2998V25.9406C54.0066 26.6314 54.5756 27.154 55.9303 27.154C57.1442 27.154 57.7728 26.5969 57.7728 25.8839V24.158C57.7728 23.8278 57.9191 23.7164 58.4827 23.7225V23.6314H56.7947V23.7225C57.3095 23.7063 57.4856 23.8481 57.4856 24.1438V25.8251C57.4856 26.5625 56.9952 26.9393 55.9899 26.9393C55.1662 26.9393 54.73 26.5665 54.73 26.0297V24.158C54.73 23.8218 54.8926 23.7266 55.3667 23.7225V23.6314H53.3102V23.7225ZM64.701 23.6314H63.0049V23.7225H63.1864C63.5739 23.7225 63.6741 23.8278 63.6741 24.1195V26.1756L60.6991 23.6314H59.3606V23.7225C59.7887 23.7225 60.0569 23.8278 60.2981 24.1236V26.5625C60.2981 26.8582 60.1301 26.998 59.6017 26.9879V27.079H61.2627V26.9879C60.7749 26.994 60.5934 26.8623 60.5934 26.4977V24.3444L63.8828 27.1195H63.9776V24.2087C63.9776 23.7772 64.0372 23.7225 64.5195 23.7225H64.701V23.6314ZM70.1418 23.5564H70.0144C69.9927 23.7023 69.9115 23.7934 69.7977 23.7934C69.6513 23.7934 69.1636 23.5564 68.386 23.5564C66.9039 23.5564 65.7388 24.3991 65.7388 25.4626C65.7388 26.2505 66.6492 27.154 68.4781 27.154C69.2503 27.154 69.6568 27.0527 70.2935 26.7934V25.8454C70.2935 25.4585 70.3829 25.343 70.9031 25.3187V25.2276H68.9279V25.3187C69.4563 25.3228 69.5701 25.4727 69.5701 25.734V26.7124C69.2097 26.8927 68.9144 26.9636 68.5404 26.9636C67.4729 26.9636 66.576 26.3154 66.576 25.3572C66.576 24.2998 67.4593 23.7468 68.4321 23.7468C69.1501 23.7468 69.9386 24.0628 70.1418 24.6563H70.261L70.1418 23.5564ZM79.2322 23.6314H75.3278V23.7225C75.7559 23.7225 75.97 23.8218 75.97 24.1236V26.5524C75.97 26.842 75.8372 26.998 75.3278 26.9879V27.079H77.3572V26.9879C76.8614 26.994 76.6934 26.8724 76.6934 26.5625V25.3633H77.8856C78.3299 25.3633 78.5033 25.5132 78.4817 25.8495H78.6036V24.6746H78.4817C78.5169 25.0615 78.2812 25.1628 77.8124 25.1628H76.6934V23.8035H78.1213C78.7906 23.8035 79.0859 23.9737 79.1536 24.3748H79.281L79.2322 23.6314ZM80.251 23.7225C80.8688 23.7124 80.9473 23.8582 80.9473 24.2998V25.9406C80.9473 26.6314 81.5191 27.154 82.8711 27.154C84.085 27.154 84.7136 26.5969 84.7136 25.8839V24.158C84.7136 23.8278 84.8599 23.7164 85.4235 23.7225V23.6314H83.7354V23.7225C84.2502 23.7063 84.4264 23.8481 84.4264 24.1438V25.8251C84.4264 26.5625 83.9359 26.9393 82.9307 26.9393C82.107 26.9393 81.6708 26.5665 81.6708 26.0297V24.158C81.6708 23.8218 81.8334 23.7266 82.3075 23.7225V23.6314H80.251V23.7225ZM82.2208 22.6084C82.0257 22.6084 81.8659 22.7279 81.8659 22.8738C81.8659 23.0196 82.0257 23.1411 82.2208 23.1411C82.4159 23.1411 82.5758 23.0196 82.5758 22.8738C82.5758 22.7279 82.4159 22.6084 82.2208 22.6084ZM83.3669 22.6084C83.1719 22.6084 83.012 22.7279 83.012 22.8738C83.012 23.0196 83.1719 23.1411 83.3669 23.1411C83.562 23.1411 83.7219 23.0196 83.7219 22.8738C83.7219 22.7279 83.562 22.6084 83.3669 22.6084ZM89.0813 25.4139C89.8671 25.2681 90.2464 24.946 90.2464 24.5308C90.2464 24.0183 89.6314 23.6314 88.8348 23.6314H86.51V23.7225C86.9977 23.7225 87.1467 23.8684 87.1467 24.1195V26.5827C87.1467 26.8218 87.0383 26.994 86.51 26.9879V27.079H88.5177V26.9879C87.9569 26.998 87.8702 26.7975 87.8702 26.5625V25.4626H88.3118L90.0459 27.079H91.2462V26.9879C90.8777 26.9636 90.5905 26.8177 90.2275 26.4774L89.0813 25.4139ZM87.8702 23.8987C88.0842 23.8278 88.2116 23.8076 88.385 23.8076C88.9621 23.8076 89.4092 24.1297 89.4092 24.5449C89.4092 25.0311 88.8998 25.2924 88.0571 25.2924H87.8702V23.8987ZM95.1994 23.7225C95.6953 23.7225 95.8768 23.8278 95.8768 24.1438V26.5524C95.8768 26.842 95.763 26.9879 95.1994 26.9879V27.079H97.5377C99.1066 27.079 100.226 26.3559 100.226 25.3532C100.226 24.5794 99.4886 23.6314 97.7464 23.6314H95.1994V23.7225ZM96.6002 23.9089C96.8279 23.8522 97.088 23.8218 97.3508 23.8218C98.5484 23.8218 99.3884 24.4599 99.3884 25.3836C99.3884 26.3012 98.5701 26.9028 97.3237 26.9028C97.05 26.9028 96.8279 26.8785 96.6002 26.8279V23.9089ZM105.122 23.6314H101.469V23.7225C101.941 23.7164 102.133 23.838 102.133 24.1094V26.5524C102.133 26.8481 102.014 26.994 101.469 26.9879V27.079H105.176L105.55 26.2202H105.409C105.135 26.7083 104.74 26.8785 104.293 26.8785H103.138C102.938 26.8785 102.857 26.7975 102.857 26.6071V25.3633H104.016C104.485 25.3633 104.648 25.5132 104.648 25.8738H104.767V24.6604H104.648C104.648 24.9926 104.485 25.1628 104.043 25.1628H102.857V23.8319H104.293C104.713 23.8319 104.962 23.9838 105.062 24.395H105.176L105.122 23.6314ZM106.577 23.7225C107.192 23.7124 107.273 23.8582 107.273 24.2998V25.9406C107.273 26.6314 107.842 27.154 109.197 27.154C110.408 27.154 111.039 26.5969 111.039 25.8839V24.158C111.039 23.8278 111.186 23.7164 111.749 23.7225V23.6314H110.061V23.7225C110.576 23.7063 110.749 23.8481 110.749 24.1438V25.8251C110.749 26.5625 110.262 26.9393 109.256 26.9393C108.433 26.9393 107.997 26.5665 107.997 26.0297V24.158C107.997 23.8218 108.156 23.7266 108.633 23.7225V23.6314H106.577V23.7225ZM114.207 23.8522V26.5524C114.207 26.8218 114.106 26.994 113.537 26.9879V27.079H115.599V26.9879C115.144 26.9879 114.93 26.8987 114.93 26.5929V23.8522H115.686C116.209 23.8522 116.45 24.0628 116.513 24.4153H116.64L116.605 23.6314H112.538L112.505 24.4153H112.624C112.66 24.0527 112.947 23.8522 113.383 23.8522H114.207ZM120.463 23.5564H120.336C120.276 23.682 120.197 23.7428 120.084 23.7428C119.834 23.7428 119.58 23.5564 119.024 23.5564C118.287 23.5564 117.724 23.9433 117.724 24.4497C117.724 24.6665 117.824 24.8954 118.065 25.0777C118.388 25.3187 119.371 25.6489 119.815 25.9791C119.989 26.1108 120.076 26.2607 120.076 26.4166C120.076 26.7326 119.707 26.9636 119.198 26.9636C118.442 26.9636 118.011 26.5524 117.87 25.9953H117.751V27.154H117.87C117.938 27.0284 118.024 26.9737 118.146 26.9737C118.379 26.9737 118.734 27.154 119.325 27.154C120.108 27.154 120.739 26.7266 120.739 26.1999C120.739 25.9852 120.617 25.7441 120.336 25.5335C119.894 25.2033 118.837 24.8366 118.542 24.6158C118.401 24.5105 118.32 24.4153 118.32 24.2532C118.32 23.9737 118.675 23.7468 119.116 23.7468C119.726 23.7468 120.263 24.1641 120.336 24.7009H120.463V23.5564ZM126.286 23.5564H126.172C126.131 23.6982 126.018 23.7833 125.917 23.7833C125.757 23.7833 125.37 23.5564 124.625 23.5564C123.224 23.5564 122.113 24.3748 122.113 25.4038C122.113 26.3863 123.183 27.154 124.544 27.154C125.394 27.154 126.058 26.8684 126.5 26.3052L126.4 26.2566C126.145 26.5767 125.562 26.9393 124.779 26.9393C123.888 26.9393 122.95 26.4977 122.95 25.4382C122.95 24.2249 123.72 23.7468 124.679 23.7468C125.43 23.7468 126.158 24.0831 126.286 24.7212H126.4L126.286 23.5564ZM128.933 25.3633H131.198V26.5524C131.198 26.8825 131.044 26.994 130.515 26.9879V27.079H132.591V26.9879C132.095 26.9879 131.922 26.9028 131.922 26.5564V24.158C131.922 23.8481 132.062 23.7164 132.591 23.7225V23.6314H130.515V23.7225C131.063 23.7124 131.198 23.8582 131.198 24.1479V25.1628H128.933V24.158C128.933 23.8623 129.052 23.7124 129.61 23.7225V23.6314H127.546V23.7225C128.096 23.7124 128.21 23.8825 128.21 24.154V26.5524C128.21 26.8522 128.082 26.9879 127.546 26.9879V27.079H129.61V26.9879C129.106 26.9879 128.933 26.8927 128.933 26.5564V25.3633ZM137.831 26.1614L137.717 26.131C137.381 26.7428 137.034 26.8522 136.39 26.8522H135.452C135.252 26.8522 135.184 26.8035 135.184 26.6516V24.158C135.184 23.8319 135.325 23.7164 135.834 23.7225V23.6314H133.769V23.7225C134.347 23.7124 134.46 23.8785 134.46 24.154V26.5524C134.46 26.8481 134.347 26.998 133.769 26.9879V27.079H137.441L137.831 26.1614ZM140.958 23.4815H140.839L139.069 26.5017C138.855 26.8623 138.733 26.9575 138.446 26.9879V27.079H139.774V26.9879C139.451 26.9879 139.278 26.9089 139.278 26.757C139.278 26.7164 139.291 26.6678 139.319 26.6212L139.725 25.9204H141.581L141.931 26.5118C141.998 26.6212 142.017 26.6881 142.017 26.7468C142.017 26.9028 141.844 26.9879 141.543 26.9879H141.535V27.079H143.424V26.9879C143.109 26.9879 142.968 26.9433 142.781 26.6212L140.958 23.4815ZM140.657 24.3302L141.475 25.7299H139.839L140.657 24.3302ZM149.273 23.6314H147.577V23.7225H147.759C148.149 23.7225 148.249 23.8278 148.249 24.1195V26.1756L145.274 23.6314H143.933V23.7225C144.361 23.7225 144.629 23.8278 144.87 24.1236V26.5625C144.87 26.8582 144.702 26.998 144.174 26.9879V27.079H145.835V26.9879C145.347 26.994 145.166 26.8623 145.166 26.4977V24.3444L148.455 27.1195H148.55V24.2087C148.55 23.7772 148.61 23.7225 149.092 23.7225H149.273V23.6314ZM150.371 23.7225C150.867 23.7225 151.048 23.8278 151.048 24.1438V26.5524C151.048 26.842 150.934 26.9879 150.371 26.9879V27.079H152.709C154.278 27.079 155.397 26.3559 155.397 25.3532C155.397 24.5794 154.66 23.6314 152.918 23.6314H150.371V23.7225ZM151.772 23.9089C151.999 23.8522 152.262 23.8218 152.522 23.8218C153.722 23.8218 154.56 24.4599 154.56 25.3836C154.56 26.3012 153.741 26.9028 152.495 26.9028C152.221 26.9028 151.999 26.8785 151.772 26.8279V23.9089Z" fill="black" stroke="#231F20" stroke-width="0.227384" stroke-miterlimit="3.864"/>
</svg>
