<svg width="88" height="88" viewBox="0 0 88 88" fill="none" xmlns="http://www.w3.org/2000/svg">
<g filter="url(#filter0_d_1_196)">
<path d="M9.31239 36.0015C2.29426 41.715 2.16445 50.9209 9.31239 57.7924C9.31239 65.8622 14.5121 71.0135 22.0588 71.0135C23.0849 76.7761 28.3571 80 32.9555 80C37.5539 80 44.0001 77.1601 44.0001 69.6722V61.8187H59.4914C60.3594 61.8187 61.1988 62.1292 61.8579 62.6941L67.7593 67.7522C67.6785 68.1862 67.6363 68.6337 67.6363 69.0911C67.6363 73.1076 70.8924 76.3636 74.9091 76.3636C78.9257 76.3636 82.1818 73.1076 82.1818 69.0911C82.1818 65.0747 78.9257 61.8187 74.9091 61.8187C74.0616 61.8187 73.2481 61.9636 72.4918 62.23L66.591 57.1724C64.6137 55.4777 62.0955 54.5462 59.4914 54.5462H44.0001V43.6375H70.4275C71.685 45.8112 74.0353 47.2737 76.7272 47.2737C80.7439 47.2737 84 44.0177 84 40.0013C84 35.9848 80.7439 32.7288 76.7272 32.7288C74.0353 32.7288 71.685 34.1913 70.4275 36.365H44.0001V25.4563H59.4914C62.0955 25.4563 64.6137 24.5248 66.591 22.8301L72.4918 17.7725C73.248 18.0389 74.0616 18.1838 74.9091 18.1838C78.9257 18.1838 82.1818 14.9278 82.1818 10.9114C82.1818 6.8949 78.9257 3.6389 74.9091 3.6389C70.8924 3.6389 67.6363 6.8949 67.6363 10.9114C67.6363 11.3688 67.6785 11.8163 67.7593 12.2503L61.8579 17.3084C61.1988 17.8733 60.3594 18.1838 59.4914 18.1838H44.0001V9.00038C44.0001 5.00021 39.9556 0 33.9552 0C27.9547 0 23.9542 5.00799 23.9543 9.00038C18.9717 10.5707 15.299 14.2298 15.299 19.9362C9.8792 22.6147 6.44597 29.1399 9.31239 36.0015Z" fill="url(#paint0_linear_1_196)"/>
</g>
<defs>
<filter id="filter0_d_1_196" x="0" y="0" width="88" height="88" filterUnits="userSpaceOnUse" color-interpolation-filters="sRGB">
<feFlood flood-opacity="0" result="BackgroundImageFix"/>
<feColorMatrix in="SourceAlpha" type="matrix" values="0 0 0 0 0 0 0 0 0 0 0 0 0 0 0 0 0 0 127 0" result="hardAlpha"/>
<feOffset dy="4"/>
<feGaussianBlur stdDeviation="2"/>
<feComposite in2="hardAlpha" operator="out"/>
<feColorMatrix type="matrix" values="0 0 0 0 0 0 0 0 0 0 0 0 0 0 0 0 0 0 0.25 0"/>
<feBlend mode="normal" in2="BackgroundImageFix" result="effect1_dropShadow_1_196"/>
<feBlend mode="normal" in="SourceGraphic" in2="effect1_dropShadow_1_196" result="shape"/>
</filter>
<linearGradient id="paint0_linear_1_196" x1="84" y1="40" x2="4" y2="40" gradientUnits="userSpaceOnUse">
<stop stop-color="white"/>
<stop offset="1" stop-color="#1909FE"/>
</linearGradient>
</defs>
</svg>
